<svg xmlns="http://www.w3.org/2000/svg" viewBox="0 0 849.866 175"><defs><style>.cls-1{fill:#3f3730;}</style></defs><title>fv-typemark-outline</title><g id="mark-bg"><path class="cls-1" d="M173,2V173H2V2H173m2-2H0V175H175V0Z"/></g><g id="mark"><path class="cls-1" d="M60.539,107.26H26.25v-2.336c1.91-.106,7.007-.531,8.386-1.061a4.642,4.642,0,0,0,3.224-4.135H49.343a4.929,4.929,0,0,0,3.128,3.6,41.723,41.723,0,0,0,8.068,1.592ZM46.993,96.755V77.982H35.74V96.755Zm25.053-11.47v-7.3H67.541a31.435,31.435,0,0,1,1.638,7.3Zm49.335,36.189q-.976,2.3-1.949,4.6-.861-2.323-1.7-4.6H105.751c2.193,6.068,4.474,12.393,6.765,18.772h4.876c2.36-5.677,5.091-12.162,7.893-18.772ZM89.966,77.982c1.445,3.983,3.842,10.565,6.825,18.773h11.9c-3.231-8.92-5.658-15.7-6.757-18.773Zm11.1-3.605c0-2.547,6.583-3.715,10.3-3.927V68.114H78.455V70.45a18.65,18.65,0,0,1,7.006,1.911,9.246,9.246,0,0,1,3.046,2.648h12.6A5.61,5.61,0,0,1,101.066,74.377Zm37.763,3.605a30.711,30.711,0,0,1-2.305,7.754c-1.171,2.816-2.776,6.618-4.643,11.019h3.947c3.033-7.077,5.577-12.984,7.065-16.433.366-.81.718-1.594,1.084-2.34ZM65.889,65.221c-1.38,1.274-4.034,3.291-9.448,3.291H46.993V56.236H35.74V75.009H46.993V71.485h9.448c4.989,0,8.068,1.91,9.448,3.29a3.067,3.067,0,0,1,.2.234h5.958V56.236H69.074C68.564,59.957,67.278,63.932,65.889,65.221Zm46.07,34.507h-11.9c2.069,5.7,4.373,12.047,6.8,18.773h11.959C116.334,111.743,114.012,105.381,111.959,99.728ZM19.687,37.089A35.306,35.306,0,0,1,28.073,39c2.656,1.062,3.292,2.866,3.292,5.2v9.061H42.618V37.62h13.27a71.85,71.85,0,0,1,8.811.425c4.564.637,10.191,9.235,11.358,13.906h2.867v-17.2H19.687Zm113.12,62.639c-2.412,5.677-5.166,12.145-7.978,18.773h3.905c2.742-6.459,5.5-12.926,8.007-18.773ZM126.756,70.45c4.307.28,10.5,1.8,11.911,4.559h7.071a8.887,8.887,0,0,1,2.675-2.436,18.533,18.533,0,0,1,6.9-2.123V68.114H126.756Z"/></g><g id="typemark"><path class="cls-1" d="M247.543,34.73c-.852-3.408-4.959-9.685-8.291-10.151a52.6,52.6,0,0,0-6.431-.31h-9.686V46.818h6.9c3.952,0,5.889-1.471,6.9-2.4,1.084-1.007,2.092-4.262,2.4-7.129h2.091V59.061H239.33c-.155-2.247-1.318-6.586-2.4-7.671a9.676,9.676,0,0,0-6.9-2.4h-6.9V68.437a3.731,3.731,0,0,0,2.4,3.8,30.392,30.392,0,0,0,5.889,1.163v1.7H206.4V73.4a35.822,35.822,0,0,0,6.121-.774,3.586,3.586,0,0,0,2.4-3.8V29.074a3.55,3.55,0,0,0-2.4-3.8,25.733,25.733,0,0,0-6.121-1.394v-1.7h43.238V34.73Zm52.538,41.224c-6.2,0-9.144-4.34-10.305-13.1C289,56.737,287.605,49.3,278.618,49.3H272.5V68.669a3.676,3.676,0,0,0,2.4,3.875,30.034,30.034,0,0,0,5.657.852v1.7H256.3V73.4a29.188,29.188,0,0,0,5.579-.852,3.676,3.676,0,0,0,2.4-3.875V28.842c0-1.7-.465-3.255-2.4-3.874a28.267,28.267,0,0,0-5.579-1.085v-1.7h27.042c7.828,0,16.583,3.486,16.583,11.932s-8.834,11.933-14.335,13.483v.775c3.642.388,10.15,2.4,11.7,8.058,1.163,4.262,1.627,8.058,2.635,11.856.93,3.487,3.022,3.719,4.185,3.719,2.169,0,3.331-1.316,3.331-6.9V63.478h2.015v1.627C309.457,72.389,306.9,75.954,300.081,75.954ZM279.315,24.347H272.5v22.7h4.8c6.819,0,13.095-2.556,13.095-11.39S285.2,24.347,279.315,24.347ZM342.856,75.1V73.4c2.711-.155,7.826-1.084,7.826-3.022a5.053,5.053,0,0,0-.311-1.782l-4.8-12.242H326.506a88.652,88.652,0,0,0-3.1,8.523,15.653,15.653,0,0,0-.852,4.339c0,2.789,6.044,4.029,8.756,4.184v1.7H310V73.4a15.3,15.3,0,0,0,5.423-1.473c1.861-1.084,3.254-3.331,4.417-6.044,5.5-13.327,11.933-29.755,17.823-44.554h2.943c7.9,19.992,15.5,39.673,18.365,46.88A6.745,6.745,0,0,0,362.15,72a13.643,13.643,0,0,0,5.114,1.395v1.7Zm-6.9-42.928-8.446,21.619h17.048Zm85.47-6.354c-2.092,1.318-2.558,5.269-2.558,10.384V75.644H416l-34.714-43.7V60.3c0,5.889.93,9.221,2.635,10.616,1.317,1.084,6.586,2.4,7.981,2.479v1.7H368.66V73.4a28.068,28.068,0,0,0,7.207-2.092c1.859-1.318,2.557-4.572,2.557-10.616V33.413c0-2.248-.93-4.881-2.48-6.122-1.859-1.472-6.2-3.331-8.291-3.408v-1.7h15.962L416,62.936V36.667c0-5.579-.929-9.376-2.634-10.461a25.166,25.166,0,0,0-7.9-2.323v-1.7h23.091v1.7A25.636,25.636,0,0,0,421.429,25.819ZM461.492,75.1V73.4c3.177-.155,7.439-.465,7.439-3.41s-13.1-16.039-17.9-20.843h-1.239V68.437a3.731,3.731,0,0,0,2.4,3.8,27.112,27.112,0,0,0,5.579,1.163v1.7h-24.02V73.4a27.847,27.847,0,0,0,5.423-.774,3.586,3.586,0,0,0,2.4-3.8V29.074a3.637,3.637,0,0,0-2.4-3.8,22.311,22.311,0,0,0-5.423-1.394v-1.7h24.02v1.7a28.2,28.2,0,0,0-5.579,1.006c-1.937.621-2.4,2.093-2.4,3.8V47.67h.852c10.074-8.135,19.294-17.279,19.294-21,0-2.325-4.882-2.712-6.277-2.789v-1.7H485.59v1.7c-1.395.077-7.2.077-10.924,4.028-6.588,7.052-10,11.314-16.893,17.125,7.981,8.292,13.637,13.947,20.068,22.084a16.607,16.607,0,0,0,6.433,5.192,20.921,20.921,0,0,0,5.578,1.084v1.7Zm76.559,0H492.179V73.4a30.661,30.661,0,0,0,6.121-.93c1.86-.7,2.4-2.015,2.4-3.8V29.074a3.549,3.549,0,0,0-2.4-3.8,25.722,25.722,0,0,0-6.121-1.394v-1.7h42.7V34.187h-2.092c-.853-3.409-4.959-9.142-8.292-9.608a52.6,52.6,0,0,0-6.431-.31h-9.144V46.585h6.742c4.34,0,5.579-1.472,6.509-2.4,1.163-1.163,2.169-5.115,2.4-7.129h2.093V58.674h-2.093c-.154-2.248-1.472-6.509-2.4-7.516-1.008-1.086-2.325-2.4-6.509-2.4h-6.742V65.8c0,6.355,1.395,7.052,9.221,7.052,5.425,0,10.848.154,12.708-1.782,2.325-2.4,5.5-8.525,6.276-10.848h1.938Zm58.891-49.282c-2.093,1.318-2.558,5.269-2.558,10.384V75.644h-2.867L556.8,31.941V60.3c0,5.889.93,9.221,2.635,10.616,1.317,1.084,6.586,2.4,7.981,2.479v1.7H544.173V73.4A28.079,28.079,0,0,0,551.38,71.3c1.859-1.318,2.556-4.572,2.556-10.616V33.413c0-2.248-.929-4.881-2.479-6.122-1.859-1.472-6.2-3.331-8.292-3.408v-1.7h15.963l32.389,40.758V36.667c0-5.579-.929-9.376-2.635-10.461a25.152,25.152,0,0,0-7.9-2.323v-1.7h23.09v1.7A25.621,25.621,0,0,0,596.942,25.819Zm30.687,50.289c-6.276,0-10.383-2.014-12.707-3.875l-2.713,3.643h-2.635l-.542-18.132h1.782c3.177,8.214,8.136,16.04,17.744,16.04,6.9,0,9.842-3.952,9.842-9.764,0-4.727-2.945-8.291-7.594-10.15-4.417-1.783-6.742-2.635-11.08-4.572-5.967-2.635-9.144-6.9-9.144-13.793,0-8.214,6.664-14.335,15.5-14.335a19.738,19.738,0,0,1,11.159,3.875l2.633-3.642h2.635l.387,17.589h-1.7c-3.1-8.756-6.586-15.5-16.969-15.5a7.632,7.632,0,0,0-7.362,7.9c0,4.725,2.558,7.438,6.819,9.763,3.8,2.091,7.052,2.79,10.538,4.494,6.664,3.023,10.926,6.122,10.926,14.335C645.141,69.444,637.625,76.108,627.629,76.108ZM697.213,35.66c-.852-3.41-5.037-10.615-8.368-11.081a54.152,54.152,0,0,0-6.277-.31h-3.641V68.205a3.831,3.831,0,0,0,2.4,3.875,35.452,35.452,0,0,0,6.354,1.316v1.7H661.957V73.4a37.9,37.9,0,0,0,6.354-.93,3.675,3.675,0,0,0,2.4-3.874V24.269h-3.641a58.775,58.775,0,0,0-6.277.31c-3.332.466-7.516,7.671-8.368,11.081h-1.859V22.178h48.505V35.66ZM750.45,75.1H704.578V73.4a30.651,30.651,0,0,0,6.12-.93c1.861-.7,2.4-2.015,2.4-3.8V29.074a3.549,3.549,0,0,0-2.4-3.8,25.726,25.726,0,0,0-6.12-1.394v-1.7h42.7V34.187H745.18c-.852-3.409-4.959-9.142-8.291-9.608a52.6,52.6,0,0,0-6.431-.31h-9.144V46.585h6.741c4.34,0,5.58-1.472,6.509-2.4,1.163-1.163,2.17-5.115,2.4-7.129h2.092V58.674h-2.092c-.154-2.248-1.472-6.509-2.4-7.516-1.007-1.086-2.324-2.4-6.509-2.4h-6.741V65.8c0,6.355,1.395,7.052,9.221,7.052,5.424,0,10.848.154,12.708-1.782,2.324-2.4,5.5-8.525,6.276-10.848h1.937Zm8.291,0V73.4a30.393,30.393,0,0,0,5.657-.774,3.5,3.5,0,0,0,2.4-3.721V29a3.46,3.46,0,0,0-2.4-3.719,25.087,25.087,0,0,0-5.657-1.394v-1.7h24.33v1.7a28.945,28.945,0,0,0-5.655,1.006c-1.937.621-2.4,2.016-2.4,3.72V68.515a3.635,3.635,0,0,0,2.4,3.718,27.926,27.926,0,0,0,5.655,1.163v1.7Zm84-49.282c-2.093,1.318-2.558,5.269-2.558,10.384V75.644h-2.867L802.6,31.941V60.3c0,5.889.93,9.221,2.635,10.616,1.316,1.084,6.586,2.4,7.981,2.479v1.7H789.969V73.4a28.079,28.079,0,0,0,7.207-2.092c1.859-1.318,2.556-4.572,2.556-10.616V33.413c0-2.248-.929-4.881-2.479-6.122-1.859-1.472-6.2-3.331-8.292-3.408v-1.7h15.962l32.39,40.758V36.667c0-5.579-.929-9.376-2.635-10.461a25.158,25.158,0,0,0-7.9-2.323v-1.7h23.091v1.7A25.621,25.621,0,0,0,842.738,25.819Zm-589.848,77.1c-2.014,1.163-2.945,3.254-4.03,5.656-3.177,7.362-12.94,30.065-18.984,44.633h-2.867c-7.206-20.07-14.335-39.6-16.891-46.647a6.522,6.522,0,0,0-3.177-3.8,13.633,13.633,0,0,0-5.115-1.394v-1.7h24.02v1.7c-2.711.154-7.515,1.006-7.515,2.865a6.156,6.156,0,0,0,.387,1.938c1.163,3.255,6.586,18.441,13.018,35.8,4.881-11.545,10-23.477,12.475-29.444,1.627-3.875,1.782-6.044,1.782-6.974,0-2.556-5.346-3.951-8.91-4.183v-1.7h20.844v1.7A13.539,13.539,0,0,0,252.89,102.922Zm30.846,49.669v-1.705c2.711-.155,7.826-1.084,7.826-3.022a5.049,5.049,0,0,0-.311-1.782l-4.8-12.243H267.386a88.753,88.753,0,0,0-3.1,8.524,15.654,15.654,0,0,0-.852,4.338c0,2.79,6.045,4.03,8.756,4.185v1.705H250.881v-1.705a15.3,15.3,0,0,0,5.424-1.473c1.86-1.085,3.255-3.331,4.417-6.044,5.5-13.327,11.932-29.755,17.822-44.554h2.944c7.9,19.992,15.5,39.673,18.365,46.88a6.741,6.741,0,0,0,3.177,3.8,13.648,13.648,0,0,0,5.114,1.395v1.705Zm-6.9-42.928-8.446,21.619h17.048Zm78.574,43.781c-6.2,0-9.144-4.34-10.306-13.1-.776-6.12-2.171-13.559-11.158-13.559h-6.122v19.371a3.676,3.676,0,0,0,2.4,3.875,30.011,30.011,0,0,0,5.656.852v1.705H311.633v-1.705a29.152,29.152,0,0,0,5.578-.852,3.677,3.677,0,0,0,2.4-3.875V106.332c0-1.7-.466-3.255-2.4-3.874a28.258,28.258,0,0,0-5.578-1.085v-1.7h27.042c7.827,0,16.582,3.486,16.582,11.932s-8.833,11.933-14.335,13.483v.775c3.643.388,10.151,2.4,11.7,8.058,1.163,4.262,1.627,8.058,2.634,11.856.93,3.487,3.022,3.719,4.185,3.719,2.169,0,3.331-1.316,3.331-6.9v-1.627h2.015V142.6C364.788,149.879,362.231,153.444,355.413,153.444Zm-20.767-51.607h-6.819v22.7h4.8c6.819,0,13.1-2.556,13.1-11.39S340.535,101.837,334.646,101.837Zm36.111,50.754v-1.705a30.37,30.37,0,0,0,5.656-.774,3.494,3.494,0,0,0,2.4-3.721v-39.9a3.461,3.461,0,0,0-2.4-3.719,25.079,25.079,0,0,0-5.656-1.394v-1.7h24.33v1.7a28.918,28.918,0,0,0-5.655,1.006c-1.938.621-2.4,2.016-2.4,3.72v39.906a3.634,3.634,0,0,0,2.4,3.718,27.9,27.9,0,0,0,5.655,1.163v1.705Zm78.882-6.2a27.379,27.379,0,0,1-19.294,7.439,26.671,26.671,0,0,1-18.52-7.282,26.267,26.267,0,0,1-8.29-19.837c0-8.448,2.479-15.188,7.515-20.225a27.968,27.968,0,0,1,39.286,0c4.572,4.572,7.361,11.7,7.361,19.294C457.7,133.839,455.3,140.89,449.639,146.391Zm-18.984-45.562c-11,0-17.744,9.453-17.744,25.494,0,13.792,5.655,25.106,17.744,25.106,12.011,0,17.666-11,17.666-25.417C448.321,113.382,443.517,100.829,430.655,100.829Zm79.194,52.615c-6.2,0-9.144-4.34-10.306-13.1-.775-6.12-2.17-13.559-11.158-13.559h-6.122v19.371a3.676,3.676,0,0,0,2.4,3.875,30.023,30.023,0,0,0,5.656.852v1.705H466.069v-1.705a29.164,29.164,0,0,0,5.578-.852,3.676,3.676,0,0,0,2.4-3.875V106.332c0-1.7-.465-3.255-2.4-3.874a28.258,28.258,0,0,0-5.578-1.085v-1.7h27.042c7.827,0,16.583,3.486,16.583,11.932s-8.834,11.933-14.335,13.483v.775c3.642.388,10.15,2.4,11.7,8.058,1.163,4.262,1.627,8.058,2.635,11.856.929,3.487,3.022,3.719,4.184,3.719,2.17,0,3.331-1.316,3.331-6.9v-1.627h2.016V142.6C519.225,149.879,516.667,153.444,509.849,153.444Zm-20.766-51.607h-6.82v22.7h4.8c6.82,0,13.1-2.556,13.1-11.39S494.971,101.837,489.083,101.837Zm84.537,1.395c-2.092,1.317-2.556,5.5-2.556,10.305v23.712c0,12.63-12.321,16.581-19.992,16.581-13.561,0-20.534-7.129-20.534-15.187V106.564a3.954,3.954,0,0,0-2.4-3.874,18.4,18.4,0,0,0-5.425-1.317v-1.7h24.1v1.7a28.2,28.2,0,0,0-5.579,1.006c-1.938.621-2.4,2.093-2.4,3.8v30.917c0,5.58,2.014,13.405,14.1,13.405,12.32,0,15.187-8.445,15.187-13.56V114c0-5.658-.93-9.3-2.635-10.384a21.07,21.07,0,0,0-7.9-2.246v-1.7H580.75v1.7C579.355,101.45,575.249,102.224,573.62,103.232Zm55.173,49.359v-1.705c1.395-.078,5.656-.465,6.741-1.007a4.062,4.062,0,0,0,2.48-3.952V106.254l-20.069,45.485h-1.473a111.821,111.821,0,0,0-4.107-10.771l-15.032-33.629v30.529c0,5.89.929,9.222,2.634,10.617,1.318,1.085,6.587,2.323,7.981,2.4v1.705H584.7v-1.705c1.316-.155,5.346-.62,7.206-1.937s2.557-4.727,2.557-10.693V109.9c0-3.178-.853-5.115-2.4-6.354a12.935,12.935,0,0,0-6.973-2.169v-1.7h17.434L620.5,139.109l14.491-32.855a24.605,24.605,0,0,0,1.782-6.586h17.512v1.7a29.716,29.716,0,0,0-5.735,1.006c-1.937.621-2.4,2.093-2.4,3.8v39.751a3.791,3.791,0,0,0,2.4,3.8,24.869,24.869,0,0,0,5.812,1.163v1.705Z"/></g></svg>