<svg xmlns="http://www.w3.org/2000/svg" viewBox="0 0 21 21"><defs><style>.cls-1{fill:#8b8682;}</style></defs><title>link</title><g id="Layer_2" data-name="Layer 2"><g id="Layer_1-2" data-name="Layer 1"><path class="cls-1" d="M4.339,7.691,3.284,6.628a2.378,2.378,0,0,1,0-3.34,2.312,2.312,0,0,1,3.285,0L10.449,7.2c.8.811,1.988,2.336.886,3.447a1.3,1.3,0,0,0,1.846,1.834c1.875-1.889,1.528-4.682-.885-7.113L8.416,1.455a4.912,4.912,0,0,0-6.979,0,4.989,4.989,0,0,0,0,7.007L2.493,9.525A1.3,1.3,0,0,0,4.339,7.691ZM19.414,19.544a4.647,4.647,0,0,0,.258-6.744l-1.315-1.325a1.3,1.3,0,1,0-1.846,1.834l1.314,1.324a2.107,2.107,0,0,1-.259,3.078,2.308,2.308,0,0,1-3.285,0l-4.14-4.173c-1.893-1.908-1.005-2.8-.626-3.185A1.3,1.3,0,1,0,7.669,8.52a4.105,4.105,0,0,0-1.3,2.924,5.732,5.732,0,0,0,1.925,3.928l4.14,4.173a4.912,4.912,0,0,0,6.98,0Z"/></g></g></svg>