<!DOCTYPE svg PUBLIC "-//W3C//DTD SVG 20010904//EN" "http://www.w3.org/TR/2001/REC-SVG-20010904/DTD/svg10.dtd">
<svg version="1.0" xmlns="http://www.w3.org/2000/svg" width="250px" height="250px" viewBox="0 0 2500 2500" preserveAspectRatio="xMidYMid meet">
<g id="layer101" fill="#1c1c1c" stroke="none">
 <path d="M10 1250 l0 -1240 1240 0 1240 0 0 1240 0 1240 -1240 0 -1240 0 0 -1240z"/>
 </g>
<g id="layer102" fill="#fff" stroke="none">
 <path d="M0 1250 l0 -1250 1250 0 1250 0 0 1250 0 1250 -1250 0 -1250 0 0 -1250z m560 534 c24 -10 48 -29 61 -51 19 -30 21 -44 16 -105 l-6 -69 38 34 c74 67 143 99 306 144 256 70 672 21 749 -89 17 -24 11 -74 -11 -100 -14 -15 -13 -20 6 -44 29 -37 27 -51 -14 -90 l-36 -33 35 -15 c44 -18 68 -56 70 -106 1 -36 4 -41 37 -54 38 -16 93 -71 104 -106 10 -30 -8 -45 -96 -81 -69 -28 -189 -97 -189 -109 0 -9 176 9 295 29 206 36 321 46 366 31 22 -8 45 -23 51 -34 15 -28 20 -76 8 -76 -6 0 -10 5 -10 11 0 5 -6 7 -12 3 -10 -6 -10 -4 0 7 31 33 2 68 -62 75 -35 3 -195 -21 -205 -32 -7 -7 -4 -80 5 -106 6 -19 11 -20 65 -14 32 4 85 16 116 27 90 31 93 32 93 21 0 -11 -99 -52 -125 -52 -8 0 -16 -4 -20 -9 -3 -5 -36 -12 -73 -16 -37 -4 -134 -20 -217 -37 -258 -51 -790 -64 -945 -23 -97 25 -239 97 -300 152 -30 27 -50 39 -45 28 6 -11 10 -48 10 -83 0 -61 -2 -65 -37 -98 -32 -29 -45 -34 -85 -34 -57 0 -109 28 -123 66 -14 37 -12 95 5 128 l15 29 -42 -7 c-24 -3 -73 -9 -110 -13 l-68 -6 0 368 0 368 86 -7 c48 -3 98 -9 112 -13 22 -5 24 -4 16 13 -5 10 -9 43 -9 71 0 44 5 57 26 79 22 21 58 37 101 43 4 1 26 -6 48 -15z"/>
 <path d="M439 1721 c-33 -34 -38 -75 -14 -121 19 -37 43 -50 92 -50 62 0 65 7 59 99 -3 45 -8 86 -11 91 -3 6 -27 10 -51 10 -37 0 -51 -6 -75 -29z"/>
 <path d="M1065 1719 c-38 -11 -77 -22 -85 -26 -8 -3 -21 -5 -27 -4 -7 1 -13 -3 -13 -9 0 -6 -5 -8 -12 -4 -6 4 -17 -1 -25 -12 -11 -15 -16 -16 -22 -6 -6 10 -13 6 -26 -15 -17 -25 -19 -26 -25 -8 -6 17 -8 16 -25 -10 -11 -17 -21 -32 -23 -35 -1 -2 -7 2 -12 10 -7 11 -11 8 -21 -14 -11 -24 -14 -25 -22 -10 -8 14 -12 12 -24 -17 -9 -19 -17 -28 -20 -21 -8 21 -20 13 -26 -18 -6 -27 -27 -43 -27 -20 0 6 -4 10 -9 10 -5 0 -12 -20 -15 -45 -4 -25 -11 -45 -17 -45 -5 0 -9 5 -9 10 0 6 -4 10 -10 10 -5 0 -10 -18 -10 -40 0 -29 -4 -40 -15 -40 -16 0 -18 -9 -15 -47 1 -13 -3 -23 -8 -23 -11 0 -28 -98 -19 -106 3 -3 22 12 44 33 58 57 137 93 219 99 81 7 192 -14 262 -48 85 -42 164 -139 196 -240 5 -16 10 -15 53 12 55 35 131 60 182 60 31 0 42 7 78 49 l42 48 -40 22 c-21 12 -39 20 -39 16 0 -3 -15 2 -32 12 -44 23 -57 24 -98 11 -35 -12 -40 -13 -95 -22 -16 -3 -50 -10 -75 -15 -68 -15 -74 -13 -92 27 -28 61 -88 123 -142 148 -61 29 -152 32 -222 8 -25 -8 -48 -13 -51 -10 -3 3 2 8 11 12 9 3 16 10 16 15 0 13 46 59 59 59 6 0 11 7 11 15 0 8 7 15 15 15 8 0 15 5 15 10 0 6 9 10 20 10 11 0 20 5 20 10 0 6 7 10 15 10 8 0 15 5 15 10 0 6 7 10 15 10 8 0 15 5 15 11 0 6 6 9 14 6 8 -3 17 1 20 9 3 8 9 14 13 13 23 -4 43 2 38 11 -4 6 5 10 19 10 14 0 26 5 26 11 0 6 9 9 20 6 11 -3 20 -2 20 2 0 10 117 49 190 62 103 20 93 29 -30 28 -82 0 -135 -6 -185 -20z"/>
 <path d="M1353 1699 c-50 -20 -53 -24 -53 -56 0 -19 -5 -43 -10 -54 -13 -24 -7 -24 74 -3 60 16 63 16 174 -12 104 -27 115 -28 140 -14 16 10 28 26 30 42 4 33 -34 58 -136 88 -108 32 -158 34 -219 9z"/>
 <path d="M1310 1554 c-25 -7 -46 -13 -47 -13 -1 -1 3 -15 9 -31 8 -24 7 -35 -6 -55 -15 -23 -15 -25 1 -25 9 0 42 7 74 16 56 16 60 16 168 -11 63 -16 121 -25 135 -21 36 9 58 35 54 65 -2 21 -12 29 -53 43 -27 9 -66 19 -85 22 -19 3 -49 10 -66 15 -42 12 -130 10 -184 -5z"/>
 <path d="M1195 1518 c-42 -15 -55 -27 -55 -52 0 -48 49 -61 94 -25 21 16 26 28 24 53 -3 35 -18 40 -63 24z"/>
 <path d="M475 1510 c-47 -11 -72 -27 -94 -64 -27 -43 -27 -89 0 -133 19 -31 64 -63 89 -63 5 0 10 10 10 23 0 40 31 130 61 179 15 26 25 49 21 51 -18 10 -60 14 -87 7z"/>
 <path d="M1344 1420 c-3 -3 -15 -5 -27 -5 -18 0 -23 -8 -29 -44 -4 -24 -15 -52 -24 -62 -16 -18 -16 -19 5 -19 12 0 53 5 91 11 l68 10 101 -50 c108 -55 102 -54 209 -25 15 4 9 35 -14 71 -16 25 -88 66 -98 56 -3 -4 -6 -1 -6 5 0 7 -3 11 -7 10 -13 -3 -77 14 -89 23 -6 5 -21 11 -35 13 -13 3 -26 6 -29 7 -11 5 -111 4 -116 -1z"/>
 <path d="M1190 1362 c-57 -38 -69 -66 -39 -85 42 -26 119 31 119 89 0 43 -11 43 -80 -4z"/>
 <path d="M713 1271 c4 -17 2 -21 -9 -17 -8 3 -20 9 -28 12 -11 4 -13 0 -9 -15 5 -20 3 -21 -22 -11 -25 9 -27 9 -22 -10 4 -16 0 -20 -19 -20 -17 0 -22 -4 -18 -15 4 -10 0 -15 -15 -15 -14 0 -19 -5 -15 -15 4 -8 1 -15 -5 -15 -16 0 -13 -52 5 -95 20 -49 104 -137 178 -187 110 -75 285 -140 383 -141 45 -1 69 7 190 70 76 39 163 78 193 88 41 13 198 103 229 131 2 1 -1 16 -7 32 -7 20 -6 35 2 51 15 27 64 61 89 61 31 0 18 19 -20 29 -56 16 -113 13 -159 -8 -42 -19 -84 -63 -84 -87 0 -8 -4 -14 -10 -14 -5 0 -10 -12 -10 -26 0 -21 -4 -25 -17 -19 -10 4 -25 8 -33 10 -8 2 -15 4 -15 5 0 7 -36 6 -40 0 -3 -5 -12 -7 -20 -3 -8 3 -15 0 -15 -6 0 -6 -7 -8 -15 -5 -9 4 -18 -1 -21 -11 -4 -9 -12 -14 -20 -11 -7 3 -18 -2 -25 -10 -10 -12 -14 -12 -20 -2 -6 9 -10 8 -15 -5 -3 -9 -11 -17 -17 -17 -6 0 -21 -10 -34 -22 -28 -26 -32 -23 -35 25 -2 20 -6 37 -10 37 -4 0 -5 7 -2 15 4 8 1 15 -4 15 -6 0 -14 15 -18 34 -4 22 -11 33 -19 30 -9 -4 -11 3 -8 23 4 27 4 27 -11 9 -15 -19 -16 -18 -16 12 0 18 -4 32 -10 32 -5 0 -10 -4 -10 -10 0 -5 -4 -10 -9 -10 -4 0 -6 11 -3 25 5 27 -12 35 -22 10 -8 -22 -28 -18 -21 4 7 23 -13 39 -21 17 -9 -25 -24 -19 -24 9 0 29 -8 32 -26 8 -12 -16 -13 -16 -14 -2 0 9 -6 22 -14 28 -11 9 -15 8 -21 -6 -6 -17 -7 -17 -16 0 -13 22 -29 22 -29 0 0 -14 -3 -13 -16 5 -18 26 -34 29 -34 5 0 -14 -2 -14 -20 2 -19 18 -20 17 -20 -5 0 -21 -2 -22 -17 -8 -36 30 -47 33 -40 9z"/>
 <path d="M394 1186 c-29 -29 -34 -41 -34 -80 0 -84 39 -128 128 -142 23 -3 42 -2 46 4 3 5 -6 35 -20 67 -14 31 -31 85 -37 121 -13 77 -30 83 -83 30z"/>
 <path d="M1784 1140 c-28 -11 -54 -48 -54 -77 0 -28 7 -28 92 -1 72 23 81 35 48 68 -21 21 -51 25 -86 10z"/>
 <path d="M450 900 c-81 -81 -24 -218 74 -180 25 9 26 12 26 105 l0 95 -40 0 c-27 0 -47 -7 -60 -20z"/>
 <path d="M1944 911 c-2 -3 -17 -5 -32 -6 -15 -1 -43 -6 -62 -10 -19 -5 -41 -8 -49 -6 -11 2 -13 -11 -9 -63 2 -36 7 -68 11 -72 3 -3 60 4 127 17 l120 23 -1 35 c-2 73 -11 86 -57 86 -24 0 -45 -2 -48 -4z"/>
 <path d="M1726 873 c-3 -3 -23 -7 -43 -9 -21 -1 -38 -3 -38 -4 0 -1 -31 -3 -70 -4 -86 -3 -119 -14 -243 -79 -64 -34 -90 -53 -77 -55 35 -5 514 14 520 20 14 13 -7 118 -25 128 -9 5 -20 7 -24 3z"/>
 </g>

</svg>