<svg xmlns="http://www.w3.org/2000/svg" viewBox="0 0 175 175"><defs><style>.cls-1{fill:#fcd9bf;}.cls-2{fill:#3f3730;}</style></defs><title>fv-mark-outline-vermillion</title><g id="mark-bg"><rect class="cls-1" x="1" y="1" width="173" height="173"/><path class="cls-2" d="M173,2V173H2V2H173m2-2H0V175H175V0Z"/></g><g id="mark"><path class="cls-2" d="M60.539,107.26H26.25v-2.336c1.91-.106,7.007-.531,8.386-1.061a4.642,4.642,0,0,0,3.224-4.135H49.343a4.929,4.929,0,0,0,3.128,3.6,41.723,41.723,0,0,0,8.068,1.592ZM46.993,96.755V77.982H35.74V96.755Zm25.053-11.47v-7.3H67.541a31.435,31.435,0,0,1,1.638,7.3Zm49.335,36.189q-.976,2.3-1.949,4.6-.861-2.323-1.7-4.6H105.751c2.193,6.068,4.474,12.393,6.765,18.772h4.876c2.36-5.677,5.091-12.162,7.893-18.772ZM89.966,77.982c1.445,3.983,3.842,10.565,6.825,18.773h11.9c-3.231-8.92-5.658-15.7-6.757-18.773Zm11.1-3.605c0-2.547,6.583-3.715,10.3-3.927V68.114H78.455V70.45a18.65,18.65,0,0,1,7.006,1.911,9.246,9.246,0,0,1,3.046,2.648h12.6A5.61,5.61,0,0,1,101.066,74.377Zm37.763,3.605a30.711,30.711,0,0,1-2.305,7.754c-1.171,2.816-2.776,6.618-4.643,11.019h3.947c3.033-7.077,5.577-12.984,7.065-16.433.366-.81.719-1.594,1.084-2.34ZM65.889,65.221c-1.38,1.274-4.034,3.291-9.448,3.291H46.993V56.236H35.74V75.009H46.993V71.485h9.448c4.989,0,8.068,1.91,9.448,3.29a3.067,3.067,0,0,1,.2.234h5.958V56.236H69.074C68.564,59.957,67.278,63.932,65.889,65.221Zm46.07,34.507h-11.9c2.069,5.7,4.373,12.047,6.806,18.773h11.958C116.334,111.743,114.012,105.381,111.959,99.728ZM19.688,37.089A35.3,35.3,0,0,1,28.073,39c2.656,1.062,3.292,2.866,3.292,5.2v9.061H42.618V37.62h13.27a71.85,71.85,0,0,1,8.811.425c4.564.637,10.191,9.235,11.358,13.906h2.867v-17.2H19.688ZM132.807,99.728c-2.412,5.677-5.166,12.145-7.978,18.773h3.905c2.742-6.459,5.5-12.926,8.007-18.773ZM126.756,70.45c4.307.28,10.5,1.8,11.911,4.559h7.071a8.887,8.887,0,0,1,2.675-2.436,18.538,18.538,0,0,1,6.9-2.123V68.114H126.756Z"/></g></svg>