<svg xmlns="http://www.w3.org/2000/svg" viewBox="0 0 224.986 175"><defs><style>.cls-1{opacity:0.3;}.cls-2{fill:#fff;}</style></defs><title>fv-watermark</title><g id="mark"><g class="cls-1"><path class="cls-2" d="M67.768,116.405a69.3,69.3,0,0,1-13.384-2.642,8.177,8.177,0,0,1-5.189-5.979H30.146a7.7,7.7,0,0,1-5.349,6.86c-2.287.88-10.742,1.584-13.911,1.761v3.874H67.768Z"/><rect class="cls-2" x="26.63" y="71.711" width="18.668" height="31.141"/><path class="cls-2" d="M86.857,83.825V71.711H79.384A52.261,52.261,0,0,1,82.1,83.825Z"/><path class="cls-2" d="M168.7,143.859q-1.617,3.817-3.233,7.635-1.426-3.853-2.823-7.635H142.77c3.638,10.066,7.422,20.559,11.222,31.141h8.088c3.916-9.418,8.446-20.175,13.1-31.141Z"/><path class="cls-2" d="M116.584,71.711c2.4,6.608,6.374,17.526,11.322,31.141H147.65c-5.36-14.8-9.386-26.041-11.208-31.141Z"/><path class="cls-2" d="M135,65.731c0-4.226,10.919-6.163,17.083-6.516V55.341H97.489v3.874a30.988,30.988,0,0,1,11.622,3.17,15.375,15.375,0,0,1,5.053,4.394h20.9A8.911,8.911,0,0,1,135,65.731Z"/><path class="cls-2" d="M197.642,71.711a50.877,50.877,0,0,1-3.824,12.863c-1.941,4.672-4.605,10.978-7.7,18.278h6.546c5.032-11.74,9.252-21.539,11.72-27.259.607-1.344,1.193-2.644,1.8-3.882Z"/><path class="cls-2" d="M76.643,50.542C74.353,52.655,69.951,56,60.97,56H45.3V35.636H26.63V66.779H45.3V60.932H60.97c8.276,0,13.383,3.169,15.673,5.459a4.792,4.792,0,0,1,.329.388h9.885V35.636H81.926C81.08,41.809,78.948,48.4,76.643,50.542Z"/><path class="cls-2" d="M153.068,107.784H133.325c3.432,9.449,7.255,19.985,11.29,31.143h19.837C160.325,127.716,156.473,117.163,153.068,107.784Z"/><path class="cls-2" d="M0,3.874a58.549,58.549,0,0,1,13.911,3.17c4.4,1.762,5.461,4.755,5.461,8.629V30.7H38.04V4.755H60.053A119.064,119.064,0,0,1,74.67,5.46c7.57,1.056,16.905,15.32,18.841,23.069h4.756V0H0Z"/><path class="cls-2" d="M187.652,107.784c-4,9.419-8.569,20.148-13.235,31.143H180.9c4.55-10.714,9.13-21.443,13.284-31.143Z"/><path class="cls-2" d="M177.615,59.215c7.144.466,17.425,2.99,19.758,7.564H209.1a14.719,14.719,0,0,1,4.437-4.041,30.789,30.789,0,0,1,11.445-3.523V55.341H177.615Z"/></g></g></svg>